# xmcd CD database file
#
# Track frame offsets:
#	150
#	13775
#	24060
#	40752
#	53567
#	68682
#	83205
#	94890
#	106532
#	121710
#	138512
#
# Disc length: 2125 seconds
#
# Revision: 3
# Processed by: cddbd v1.5.2PL0 Copyright (c) Steve Scherf et al.
# Submitted via: CDex 1.51
#
DISCID=78084b0b
DTITLE=The Fabulous Thunderbirds - T-Bird Rythm
DYEAR=1982
DGENRE=Rock
TTITLE0=Can't Tear It Up Enough
TTITLE1=How Do You Spell Love
TTITLE2=You're Humbuggin' Me
TTITLE3=My Babe
TTITLE4=Neighbor Tend To Your Business
TTITLE5=The Monkey
TTITLE6=Diddy Wah Diddy
TTITLE7=Lover's Crime
TTITLE8=Poor Boy
TTITLE9=Tell Me (Pretty Baby)
TTITLE10=Gotta Have Some - Just Got Some
EXTD=YEAR: 1982
EXTT0=
EXTT1=
EXTT2=
EXTT3=
EXTT4=
EXTT5=
EXTT6=
EXTT7=
EXTT8=
EXTT9=
EXTT10=
PLAYORDER=
